<svg version="1.1" viewBox="0.0 0.0 960.0 540.0" fill="none" stroke="none" stroke-linecap="square" stroke-miterlimit="10" xmlns:xlink="http://www.w3.org/1999/xlink" xmlns="http://www.w3.org/2000/svg"><clipPath id="g2ffe34cdbf7_0_0.0"><path d="m0 0l960.0 0l0 540.0l-960.0 0l0 -540.0z" clip-rule="nonzero"/></clipPath><g clip-path="url(#g2ffe34cdbf7_0_0.0)"><path fill="#ffffff" d="m0 0l960.0 0l0 540.0l-960.0 0z" fill-rule="evenodd"/><path shape-rendering="crispEdges" fill="#cccccc" d="m7.0682416 148.94489l63.29659 0l0 41.595795l-63.29659 0l0 -41.595795z" fill-rule="nonzero"/><path shape-rendering="crispEdges" fill="#cccccc" d="m70.36483 148.94489l63.296593 0l0 41.595795l-63.296593 0l0 -41.595795z" fill-rule="nonzero"/><path shape-rendering="crispEdges" fill="#cccccc" d="m133.66142 148.94489l63.296585 0l0 41.595795l-63.296585 0l0 -41.595795z" fill-rule="nonzero"/><path shape-rendering="crispEdges" fill="#cccccc" d="m196.95801 148.94489l63.2966 0l0 41.595795l-63.2966 0l0 -41.595795z" fill-rule="nonzero"/><path shape-rendering="crispEdges" fill="#cccccc" d="m260.2546 148.94489l63.29657 0l0 41.595795l-63.29657 0l0 -41.595795z" fill-rule="nonzero"/><path shape-rendering="crispEdges" fill="#cccccc" d="m323.55118 148.94489l63.2966 0l0 41.595795l-63.2966 0l0 -41.595795z" fill-rule="nonzero"/><path stroke="#9e9e9e" stroke-width="1.0" stroke-linecap="butt" d="m7.0682416 148.4462l0 250.57217" fill-rule="nonzero"/><path stroke="#9e9e9e" stroke-width="1.0" stroke-linecap="butt" d="m70.36483 148.4462l0 250.57217" fill-rule="nonzero"/><path stroke="#9e9e9e" stroke-width="1.0" stroke-linecap="butt" d="m133.66142 148.4462l0 250.57217" fill-rule="nonzero"/><path stroke="#9e9e9e" stroke-width="1.0" stroke-linecap="butt" d="m196.95801 148.4462l0 250.57217" fill-rule="nonzero"/><path stroke="#9e9e9e" stroke-width="1.0" stroke-linecap="butt" d="m260.2546 148.4462l0 250.57217" fill-rule="nonzero"/><path stroke="#9e9e9e" stroke-width="1.0" stroke-linecap="butt" d="m323.55118 148.4462l0 250.57217" fill-rule="nonzero"/><path stroke="#9e9e9e" stroke-width="1.0" stroke-linecap="butt" d="m386.84778 148.4462l0 250.57217" fill-rule="nonzero"/><path stroke="#9e9e9e" stroke-width="1.0" stroke-linecap="butt" d="m6.569554 148.94489l380.77692 0" fill-rule="nonzero"/><path stroke="#9e9e9e" stroke-width="1.0" stroke-linecap="butt" d="m6.569554 190.54068l380.77692 0" fill-rule="nonzero"/><path stroke="#9e9e9e" stroke-width="1.0" stroke-linecap="butt" d="m6.569554 232.13649l380.77692 0" fill-rule="nonzero"/><path stroke="#9e9e9e" stroke-width="1.0" stroke-linecap="butt" d="m6.569554 273.73227l380.77692 0" fill-rule="nonzero"/><path stroke="#9e9e9e" stroke-width="1.0" stroke-linecap="butt" d="m6.569554 315.3281l380.77692 0" fill-rule="nonzero"/><path stroke="#9e9e9e" stroke-width="1.0" stroke-linecap="butt" d="m6.569554 356.9239l380.77692 0" fill-rule="nonzero"/><path stroke="#9e9e9e" stroke-width="1.0" stroke-linecap="butt" d="m6.569554 398.51968l380.77692 0" fill-rule="nonzero"/><path shape-rendering="crispEdges" fill="#cccccc" d="m566.3517 148.94489l54.25464 0l0 41.595795l-54.25464 0l0 -41.595795z" fill-rule="nonzero"/><path shape-rendering="crispEdges" fill="#cccccc" d="m620.6063 148.94489l54.254578 0l0 41.595795l-54.254578 0l0 -41.595795z" fill-rule="nonzero"/><path shape-rendering="crispEdges" fill="#cccccc" d="m674.8609 148.94489l54.254578 0l0 41.595795l-54.254578 0l0 -41.595795z" fill-rule="nonzero"/><path shape-rendering="crispEdges" fill="#cccccc" d="m729.1155 148.94489l54.254578 0l0 41.595795l-54.254578 0l0 -41.595795z" fill-rule="nonzero"/><path shape-rendering="crispEdges" fill="#cccccc" d="m783.37006 148.94489l54.25464 0l0 41.595795l-54.25464 0l0 -41.595795z" fill-rule="nonzero"/><path shape-rendering="crispEdges" fill="#cccccc" d="m837.6247 148.94489l54.254578 0l0 41.595795l-54.254578 0l0 -41.595795z" fill-rule="nonzero"/><path shape-rendering="crispEdges" fill="#6fa8dc" d="m891.8793 148.94489l54.254578 0l0 41.595795l-54.254578 0l0 -41.595795z" fill-rule="nonzero"/><path shape-rendering="crispEdges" fill="#9fc5e8" d="m891.8793 190.54068l54.254578 0l0 41.59581l-54.254578 0l0 -41.59581z" fill-rule="nonzero"/><path shape-rendering="crispEdges" fill="#9fc5e8" d="m891.8793 232.13649l54.254578 0l0 41.59578l-54.254578 0l0 -41.59578z" fill-rule="nonzero"/><path shape-rendering="crispEdges" fill="#9fc5e8" d="m891.8793 273.73227l54.254578 0l0 41.595825l-54.254578 0l0 -41.595825z" fill-rule="nonzero"/><path shape-rendering="crispEdges" fill="#9fc5e8" d="m891.8793 315.3281l54.254578 0l0 41.595795l-54.254578 0l0 -41.595795z" fill-rule="nonzero"/><path shape-rendering="crispEdges" fill="#9fc5e8" d="m891.8793 356.9239l54.254578 0l0 41.595795l-54.254578 0l0 -41.595795z" fill-rule="nonzero"/><path stroke="#9e9e9e" stroke-width="1.0" stroke-linecap="butt" d="m566.3517 148.4462l0 250.57217" fill-rule="nonzero"/><path stroke="#9e9e9e" stroke-width="1.0" stroke-linecap="butt" d="m620.6063 148.4462l0 250.57217" fill-rule="nonzero"/><path stroke="#9e9e9e" stroke-width="1.0" stroke-linecap="butt" d="m674.8609 148.4462l0 250.57217" fill-rule="nonzero"/><path stroke="#9e9e9e" stroke-width="1.0" stroke-linecap="butt" d="m729.1155 148.4462l0 250.57217" fill-rule="nonzero"/><path stroke="#9e9e9e" stroke-width="1.0" stroke-linecap="butt" d="m783.37006 148.4462l0 250.57217" fill-rule="nonzero"/><path stroke="#9e9e9e" stroke-width="1.0" stroke-linecap="butt" d="m837.6247 148.4462l0 250.57217" fill-rule="nonzero"/><path stroke="#9e9e9e" stroke-width="1.0" stroke-linecap="butt" d="m891.8793 148.4462l0 250.57217" fill-rule="nonzero"/><path stroke="#9e9e9e" stroke-width="1.0" stroke-linecap="butt" d="m946.13385 148.4462l0 250.57217" fill-rule="nonzero"/><path stroke="#9e9e9e" stroke-width="1.0" stroke-linecap="butt" d="m565.853 148.94489l380.77954 0" fill-rule="nonzero"/><path stroke="#9e9e9e" stroke-width="1.0" stroke-linecap="butt" d="m565.853 190.54068l380.77954 0" fill-rule="nonzero"/><path stroke="#9e9e9e" stroke-width="1.0" stroke-linecap="butt" d="m565.853 232.13649l380.77954 0" fill-rule="nonzero"/><path stroke="#9e9e9e" stroke-width="1.0" stroke-linecap="butt" d="m565.853 273.73227l380.77954 0" fill-rule="nonzero"/><path stroke="#9e9e9e" stroke-width="1.0" stroke-linecap="butt" d="m565.853 315.3281l380.77954 0" fill-rule="nonzero"/><path stroke="#9e9e9e" stroke-width="1.0" stroke-linecap="butt" d="m565.853 356.9239l380.77954 0" fill-rule="nonzero"/><path stroke="#9e9e9e" stroke-width="1.0" stroke-linecap="butt" d="m565.853 398.51968l380.77954 0" fill-rule="nonzero"/><path fill="#000000" fill-opacity="0.0" d="m406.51968 273.73227l146.9606 0" fill-rule="evenodd"/><path stroke="#595959" stroke-width="1.0" stroke-linejoin="round" stroke-linecap="butt" d="m406.51968 273.73227l140.9606 0" fill-rule="evenodd"/><path fill="#595959" stroke="#595959" stroke-width="1.0" stroke-linecap="butt" d="m547.4803 275.384l4.538147 -1.6517334l-4.538147 -1.6517334z" fill-rule="evenodd"/></g></svg>