<svg version="1.1" viewBox="0.0 0.0 960.0 540.0" fill="none" stroke="none" stroke-linecap="square" stroke-miterlimit="10" xmlns:xlink="http://www.w3.org/1999/xlink" xmlns="http://www.w3.org/2000/svg"><clipPath id="g2ff662ac8c8_0_31.0"><path d="m0 0l960.0 0l0 540.0l-960.0 0l0 -540.0z" clip-rule="nonzero"/></clipPath><g clip-path="url(#g2ff662ac8c8_0_31.0)"><path fill="#ffffff" d="m0 0l960.0 0l0 540.0l-960.0 0z" fill-rule="evenodd"/><path shape-rendering="crispEdges" fill="#b7b7b7" d="m122.33596 194.77953l60.748024 0l0 41.59581l-60.748024 0l0 -41.59581z" fill-rule="nonzero"/><path shape-rendering="crispEdges" fill="#3d85c6" d="m183.08398 194.77953l60.74803 0l0 41.59581l-60.74803 0l0 -41.59581z" fill-rule="nonzero"/><path shape-rendering="crispEdges" fill="#6aa84f" d="m243.83202 194.77953l60.74803 0l0 41.59581l-60.74803 0l0 -41.59581z" fill-rule="nonzero"/><path shape-rendering="crispEdges" fill="#e69138" d="m304.58005 194.77953l60.748047 0l0 41.59581l-60.748047 0l0 -41.59581z" fill-rule="nonzero"/><path shape-rendering="crispEdges" fill="#d9d9d9" d="m122.33596 236.37534l60.748024 0l0 41.595795l-60.748024 0l0 -41.595795z" fill-rule="nonzero"/><path shape-rendering="crispEdges" fill="#9fc5e8" d="m183.08398 236.37534l60.74803 0l0 41.595795l-60.74803 0l0 -41.595795z" fill-rule="nonzero"/><path shape-rendering="crispEdges" fill="#b6d7a8" d="m243.83202 236.37534l60.74803 0l0 41.595795l-60.74803 0l0 -41.595795z" fill-rule="nonzero"/><path shape-rendering="crispEdges" fill="#f6b26b" d="m304.58005 236.37534l60.748047 0l0 41.595795l-60.748047 0l0 -41.595795z" fill-rule="nonzero"/><path shape-rendering="crispEdges" fill="#d9d9d9" d="m122.33596 277.97113l60.748024 0l0 41.595795l-60.748024 0l0 -41.595795z" fill-rule="nonzero"/><path shape-rendering="crispEdges" fill="#9fc5e8" d="m183.08398 277.97113l60.74803 0l0 41.595795l-60.74803 0l0 -41.595795z" fill-rule="nonzero"/><path shape-rendering="crispEdges" fill="#b6d7a8" d="m243.83202 277.97113l60.74803 0l0 41.595795l-60.74803 0l0 -41.595795z" fill-rule="nonzero"/><path shape-rendering="crispEdges" fill="#f6b26b" d="m304.58005 277.97113l60.748047 0l0 41.595795l-60.748047 0l0 -41.595795z" fill-rule="nonzero"/><path stroke="#9e9e9e" stroke-width="1.0" stroke-linecap="butt" d="m122.33596 194.28084l0 125.784775" fill-rule="nonzero"/><path stroke="#9e9e9e" stroke-width="1.0" stroke-linecap="butt" d="m183.08398 194.28084l0 125.784775" fill-rule="nonzero"/><path stroke="#9e9e9e" stroke-width="1.0" stroke-linecap="butt" d="m243.83202 194.28084l0 125.784775" fill-rule="nonzero"/><path stroke="#9e9e9e" stroke-width="1.0" stroke-linecap="butt" d="m304.58005 194.28084l0 125.784775" fill-rule="nonzero"/><path stroke="#9e9e9e" stroke-width="1.0" stroke-linecap="butt" d="m365.3281 194.28084l0 125.784775" fill-rule="nonzero"/><path stroke="#9e9e9e" stroke-width="1.0" stroke-linecap="butt" d="m121.83727 194.77953l243.9895 0" fill-rule="nonzero"/><path stroke="#9e9e9e" stroke-width="1.0" stroke-linecap="butt" d="m121.83727 236.37534l243.9895 0" fill-rule="nonzero"/><path stroke="#9e9e9e" stroke-width="1.0" stroke-linecap="butt" d="m121.83727 277.97113l243.9895 0" fill-rule="nonzero"/><path stroke="#9e9e9e" stroke-width="1.0" stroke-linecap="butt" d="m121.83727 319.56693l243.9895 0" fill-rule="nonzero"/><path shape-rendering="crispEdges" fill="#b7b7b7" d="m571.6798 109.72179l80.997375 0l0 41.595795l-80.997375 0l0 -41.595795z" fill-rule="nonzero"/><path shape-rendering="crispEdges" fill="#999999" d="m652.6772 109.72179l80.997375 0l0 41.595795l-80.997375 0l0 -41.595795z" fill-rule="nonzero"/><path shape-rendering="crispEdges" fill="#999999" d="m733.67456 109.72179l80.997375 0l0 41.595795l-80.997375 0l0 -41.595795z" fill-rule="nonzero"/><path shape-rendering="crispEdges" fill="#d9d9d9" d="m571.6798 151.31758l80.997375 0l0 41.59581l-80.997375 0l0 -41.59581z" fill-rule="nonzero"/><path shape-rendering="crispEdges" fill="#3d85c6" d="m652.6772 151.31758l80.997375 0l0 41.59581l-80.997375 0l0 -41.59581z" fill-rule="nonzero"/><path shape-rendering="crispEdges" fill="#9fc5e8" d="m733.67456 151.31758l80.997375 0l0 41.59581l-80.997375 0l0 -41.59581z" fill-rule="nonzero"/><path shape-rendering="crispEdges" fill="#d9d9d9" d="m571.6798 192.91339l80.997375 0l0 41.595795l-80.997375 0l0 -41.595795z" fill-rule="nonzero"/><path shape-rendering="crispEdges" fill="#3d85c6" d="m652.6772 192.91339l80.997375 0l0 41.595795l-80.997375 0l0 -41.595795z" fill-rule="nonzero"/><path shape-rendering="crispEdges" fill="#9fc5e8" d="m733.67456 192.91339l80.997375 0l0 41.595795l-80.997375 0l0 -41.595795z" fill-rule="nonzero"/><path shape-rendering="crispEdges" fill="#d9d9d9" d="m571.6798 234.50919l80.997375 0l0 41.595795l-80.997375 0l0 -41.595795z" fill-rule="nonzero"/><path shape-rendering="crispEdges" fill="#6aa84f" d="m652.6772 234.50919l80.997375 0l0 41.595795l-80.997375 0l0 -41.595795z" fill-rule="nonzero"/><path shape-rendering="crispEdges" fill="#b6d7a8" d="m733.67456 234.50919l80.997375 0l0 41.595795l-80.997375 0l0 -41.595795z" fill-rule="nonzero"/><path shape-rendering="crispEdges" fill="#d9d9d9" d="m571.6798 276.10498l80.997375 0l0 41.595795l-80.997375 0l0 -41.595795z" fill-rule="nonzero"/><path shape-rendering="crispEdges" fill="#6aa84f" d="m652.6772 276.10498l80.997375 0l0 41.595795l-80.997375 0l0 -41.595795z" fill-rule="nonzero"/><path shape-rendering="crispEdges" fill="#b6d7a8" d="m733.67456 276.10498l80.997375 0l0 41.595795l-80.997375 0l0 -41.595795z" fill-rule="nonzero"/><path shape-rendering="crispEdges" fill="#d9d9d9" d="m571.6798 317.70078l80.997375 0l0 41.595825l-80.997375 0l0 -41.595825z" fill-rule="nonzero"/><path shape-rendering="crispEdges" fill="#e69138" d="m652.6772 317.70078l80.997375 0l0 41.595825l-80.997375 0l0 -41.595825z" fill-rule="nonzero"/><path shape-rendering="crispEdges" fill="#f6b26b" d="m733.67456 317.70078l80.997375 0l0 41.595825l-80.997375 0l0 -41.595825z" fill-rule="nonzero"/><path shape-rendering="crispEdges" fill="#d9d9d9" d="m571.6798 359.2966l80.997375 0l0 41.595795l-80.997375 0l0 -41.595795z" fill-rule="nonzero"/><path shape-rendering="crispEdges" fill="#e69138" d="m652.6772 359.2966l80.997375 0l0 41.595795l-80.997375 0l0 -41.595795z" fill-rule="nonzero"/><path shape-rendering="crispEdges" fill="#f6b26b" d="m733.67456 359.2966l80.997375 0l0 41.595795l-80.997375 0l0 -41.595795z" fill-rule="nonzero"/><path stroke="#9e9e9e" stroke-width="1.0" stroke-linecap="butt" d="m571.6798 109.2231l0 292.16797" fill-rule="nonzero"/><path stroke="#9e9e9e" stroke-width="1.0" stroke-linecap="butt" d="m652.6772 109.2231l0 292.16797" fill-rule="nonzero"/><path stroke="#9e9e9e" stroke-width="1.0" stroke-linecap="butt" d="m733.67456 109.2231l0 292.16797" fill-rule="nonzero"/><path stroke="#9e9e9e" stroke-width="1.0" stroke-linecap="butt" d="m814.67194 109.2231l0 292.16797" fill-rule="nonzero"/><path stroke="#9e9e9e" stroke-width="1.0" stroke-linecap="butt" d="m571.1811 109.72179l243.9895 0" fill-rule="nonzero"/><path stroke="#9e9e9e" stroke-width="1.0" stroke-linecap="butt" d="m571.1811 151.31758l243.9895 0" fill-rule="nonzero"/><path stroke="#9e9e9e" stroke-width="1.0" stroke-linecap="butt" d="m571.1811 192.91339l243.9895 0" fill-rule="nonzero"/><path stroke="#9e9e9e" stroke-width="1.0" stroke-linecap="butt" d="m571.1811 234.50919l243.9895 0" fill-rule="nonzero"/><path stroke="#9e9e9e" stroke-width="1.0" stroke-linecap="butt" d="m571.1811 276.10498l243.9895 0" fill-rule="nonzero"/><path stroke="#9e9e9e" stroke-width="1.0" stroke-linecap="butt" d="m571.1811 317.70078l243.9895 0" fill-rule="nonzero"/><path stroke="#9e9e9e" stroke-width="1.0" stroke-linecap="butt" d="m571.1811 359.2966l243.9895 0" fill-rule="nonzero"/><path stroke="#9e9e9e" stroke-width="1.0" stroke-linecap="butt" d="m571.1811 400.8924l243.9895 0" fill-rule="nonzero"/><path fill="#000000" fill-opacity="0.0" d="m391.01837 255.64043l146.96063 0" fill-rule="evenodd"/><path stroke="#595959" stroke-width="1.0" stroke-linejoin="round" stroke-linecap="butt" d="m391.01837 255.64043l140.96063 0" fill-rule="evenodd"/><path fill="#595959" stroke="#595959" stroke-width="1.0" stroke-linecap="butt" d="m531.979 257.29214l4.538086 -1.6517181l-4.538086 -1.6517334z" fill-rule="evenodd"/><path fill="#000000" fill-opacity="0.0" d="m535.40155 289.70865l-143.21259 0" fill-rule="evenodd"/><path stroke="#595959" stroke-width="1.0" stroke-linejoin="round" stroke-linecap="butt" d="m535.40155 289.70865l-137.21259 0" fill-rule="evenodd"/><path fill="#595959" stroke="#595959" stroke-width="1.0" stroke-linecap="butt" d="m398.18896 288.05692l-4.538086 1.6517334l4.538086 1.6517334z" fill-rule="evenodd"/></g></svg>