<svg version="1.1" viewBox="0.0 0.0 960.0 540.0" fill="none" stroke="none" stroke-linecap="square" stroke-miterlimit="10" xmlns:xlink="http://www.w3.org/1999/xlink" xmlns="http://www.w3.org/2000/svg"><clipPath id="g2ff662ac8c8_0_15.0"><path d="m0 0l960.0 0l0 540.0l-960.0 0l0 -540.0z" clip-rule="nonzero"/></clipPath><g clip-path="url(#g2ff662ac8c8_0_15.0)"><path fill="#ffffff" d="m0 0l960.0 0l0 540.0l-960.0 0z" fill-rule="evenodd"/><path shape-rendering="crispEdges" fill="#cccccc" d="m31.375328 19.35433l63.296585 0l0 41.595802l-63.296585 0l0 -41.595802z" fill-rule="nonzero"/><path shape-rendering="crispEdges" fill="#cccccc" d="m94.67191 19.35433l63.296593 0l0 41.595802l-63.296593 0l0 -41.595802z" fill-rule="nonzero"/><path shape-rendering="crispEdges" fill="#cccccc" d="m157.9685 19.35433l63.296585 0l0 41.595802l-63.296585 0l0 -41.595802z" fill-rule="nonzero"/><path shape-rendering="crispEdges" fill="#cccccc" d="m221.26509 19.35433l63.296585 0l0 41.595802l-63.296585 0l0 -41.595802z" fill-rule="nonzero"/><path shape-rendering="crispEdges" fill="#cccccc" d="m284.56168 19.35433l63.2966 0l0 41.595802l-63.2966 0l0 -41.595802z" fill-rule="nonzero"/><path shape-rendering="crispEdges" fill="#cccccc" d="m347.85828 19.35433l63.29657 0l0 41.595802l-63.29657 0l0 -41.595802z" fill-rule="nonzero"/><path shape-rendering="crispEdges" fill="#9fc5e8" d="m31.375328 102.54593l63.296585 0l0 41.59581l-63.296585 0l0 -41.59581z" fill-rule="nonzero"/><path shape-rendering="crispEdges" fill="#9fc5e8" d="m94.67191 102.54593l63.296593 0l0 41.59581l-63.296593 0l0 -41.59581z" fill-rule="nonzero"/><path shape-rendering="crispEdges" fill="#9fc5e8" d="m157.9685 102.54593l63.296585 0l0 41.59581l-63.296585 0l0 -41.59581z" fill-rule="nonzero"/><path shape-rendering="crispEdges" fill="#9fc5e8" d="m221.26509 102.54593l63.296585 0l0 41.59581l-63.296585 0l0 -41.59581z" fill-rule="nonzero"/><path shape-rendering="crispEdges" fill="#9fc5e8" d="m284.56168 102.54593l63.2966 0l0 41.59581l-63.2966 0l0 -41.59581z" fill-rule="nonzero"/><path shape-rendering="crispEdges" fill="#9fc5e8" d="m347.85828 102.54593l63.29657 0l0 41.59581l-63.29657 0l0 -41.59581z" fill-rule="nonzero"/><path shape-rendering="crispEdges" fill="#9fc5e8" d="m31.375328 144.14174l63.296585 0l0 41.595795l-63.296585 0l0 -41.595795z" fill-rule="nonzero"/><path shape-rendering="crispEdges" fill="#9fc5e8" d="m94.67191 144.14174l63.296593 0l0 41.595795l-63.296593 0l0 -41.595795z" fill-rule="nonzero"/><path shape-rendering="crispEdges" fill="#9fc5e8" d="m157.9685 144.14174l63.296585 0l0 41.595795l-63.296585 0l0 -41.595795z" fill-rule="nonzero"/><path shape-rendering="crispEdges" fill="#9fc5e8" d="m221.26509 144.14174l63.296585 0l0 41.595795l-63.296585 0l0 -41.595795z" fill-rule="nonzero"/><path shape-rendering="crispEdges" fill="#9fc5e8" d="m284.56168 144.14174l63.2966 0l0 41.595795l-63.2966 0l0 -41.595795z" fill-rule="nonzero"/><path shape-rendering="crispEdges" fill="#9fc5e8" d="m347.85828 144.14174l63.29657 0l0 41.595795l-63.29657 0l0 -41.595795z" fill-rule="nonzero"/><path shape-rendering="crispEdges" fill="#9fc5e8" d="m31.375328 185.73753l63.296585 0l0 41.595795l-63.296585 0l0 -41.595795z" fill-rule="nonzero"/><path shape-rendering="crispEdges" fill="#9fc5e8" d="m94.67191 185.73753l63.296593 0l0 41.595795l-63.296593 0l0 -41.595795z" fill-rule="nonzero"/><path shape-rendering="crispEdges" fill="#9fc5e8" d="m157.9685 185.73753l63.296585 0l0 41.595795l-63.296585 0l0 -41.595795z" fill-rule="nonzero"/><path shape-rendering="crispEdges" fill="#9fc5e8" d="m221.26509 185.73753l63.296585 0l0 41.595795l-63.296585 0l0 -41.595795z" fill-rule="nonzero"/><path shape-rendering="crispEdges" fill="#9fc5e8" d="m284.56168 185.73753l63.2966 0l0 41.595795l-63.2966 0l0 -41.595795z" fill-rule="nonzero"/><path shape-rendering="crispEdges" fill="#9fc5e8" d="m347.85828 185.73753l63.29657 0l0 41.595795l-63.29657 0l0 -41.595795z" fill-rule="nonzero"/><path stroke="#9e9e9e" stroke-width="1.0" stroke-linecap="butt" d="m31.375328 18.855642l0 250.57219" fill-rule="nonzero"/><path stroke="#9e9e9e" stroke-width="1.0" stroke-linecap="butt" d="m94.67191 18.855642l0 250.57219" fill-rule="nonzero"/><path stroke="#9e9e9e" stroke-width="1.0" stroke-linecap="butt" d="m157.9685 18.855642l0 250.57219" fill-rule="nonzero"/><path stroke="#9e9e9e" stroke-width="1.0" stroke-linecap="butt" d="m221.26509 18.855642l0 250.57219" fill-rule="nonzero"/><path stroke="#9e9e9e" stroke-width="1.0" stroke-linecap="butt" d="m284.56168 18.855642l0 250.57219" fill-rule="nonzero"/><path stroke="#9e9e9e" stroke-width="1.0" stroke-linecap="butt" d="m347.85828 18.855642l0 250.57219" fill-rule="nonzero"/><path stroke="#9e9e9e" stroke-width="1.0" stroke-linecap="butt" d="m411.15485 18.855642l0 250.57219" fill-rule="nonzero"/><path stroke="#9e9e9e" stroke-width="1.0" stroke-linecap="butt" d="m30.87664 19.35433l380.7769 0" fill-rule="nonzero"/><path stroke="#9e9e9e" stroke-width="1.0" stroke-linecap="butt" d="m30.87664 60.95013l380.7769 0" fill-rule="nonzero"/><path stroke="#9e9e9e" stroke-width="1.0" stroke-linecap="butt" d="m30.87664 102.54593l380.7769 0" fill-rule="nonzero"/><path stroke="#9e9e9e" stroke-width="1.0" stroke-linecap="butt" d="m30.87664 144.14174l380.7769 0" fill-rule="nonzero"/><path stroke="#9e9e9e" stroke-width="1.0" stroke-linecap="butt" d="m30.87664 185.73753l380.7769 0" fill-rule="nonzero"/><path stroke="#9e9e9e" stroke-width="1.0" stroke-linecap="butt" d="m30.87664 227.33333l380.7769 0" fill-rule="nonzero"/><path stroke="#9e9e9e" stroke-width="1.0" stroke-linecap="butt" d="m30.87664 268.92914l380.7769 0" fill-rule="nonzero"/><path fill="#000000" fill-opacity="0.0" d="m416.6404 140.40945l146.96066 0" fill-rule="evenodd"/><path stroke="#595959" stroke-width="1.0" stroke-linejoin="round" stroke-linecap="butt" d="m416.6404 140.40945l140.96066 0" fill-rule="evenodd"/><path fill="#595959" stroke="#595959" stroke-width="1.0" stroke-linecap="butt" d="m557.6011 142.06119l4.538086 -1.6517334l-4.538086 -1.6517334z" fill-rule="evenodd"/><path shape-rendering="crispEdges" fill="#cccccc" d="m31.375328 279.48557l63.296585 0l0 41.595795l-63.296585 0l0 -41.595795z" fill-rule="nonzero"/><path shape-rendering="crispEdges" fill="#cccccc" d="m94.67191 279.48557l63.296593 0l0 41.595795l-63.296593 0l0 -41.595795z" fill-rule="nonzero"/><path shape-rendering="crispEdges" fill="#6fa8dc" d="m157.9685 279.48557l63.296585 0l0 41.595795l-63.296585 0l0 -41.595795z" fill-rule="nonzero"/><path shape-rendering="crispEdges" fill="#6fa8dc" d="m221.26509 279.48557l63.296585 0l0 41.595795l-63.296585 0l0 -41.595795z" fill-rule="nonzero"/><path shape-rendering="crispEdges" fill="#6fa8dc" d="m284.56168 279.48557l63.2966 0l0 41.595795l-63.2966 0l0 -41.595795z" fill-rule="nonzero"/><path shape-rendering="crispEdges" fill="#cccccc" d="m347.85828 279.48557l63.29657 0l0 41.595795l-63.29657 0l0 -41.595795z" fill-rule="nonzero"/><path shape-rendering="crispEdges" fill="#9fc5e8" d="m157.9685 321.08136l63.296585 0l0 41.595795l-63.296585 0l0 -41.595795z" fill-rule="nonzero"/><path shape-rendering="crispEdges" fill="#9fc5e8" d="m221.26509 321.08136l63.296585 0l0 41.595795l-63.296585 0l0 -41.595795z" fill-rule="nonzero"/><path shape-rendering="crispEdges" fill="#9fc5e8" d="m284.56168 321.08136l63.2966 0l0 41.595795l-63.2966 0l0 -41.595795z" fill-rule="nonzero"/><path shape-rendering="crispEdges" fill="#9fc5e8" d="m157.9685 362.67715l63.296585 0l0 41.595825l-63.296585 0l0 -41.595825z" fill-rule="nonzero"/><path shape-rendering="crispEdges" fill="#9fc5e8" d="m221.26509 362.67715l63.296585 0l0 41.595825l-63.296585 0l0 -41.595825z" fill-rule="nonzero"/><path shape-rendering="crispEdges" fill="#9fc5e8" d="m284.56168 362.67715l63.2966 0l0 41.595825l-63.2966 0l0 -41.595825z" fill-rule="nonzero"/><path shape-rendering="crispEdges" fill="#9fc5e8" d="m157.9685 404.27298l63.296585 0l0 41.595795l-63.296585 0l0 -41.595795z" fill-rule="nonzero"/><path shape-rendering="crispEdges" fill="#9fc5e8" d="m221.26509 404.27298l63.296585 0l0 41.595795l-63.296585 0l0 -41.595795z" fill-rule="nonzero"/><path shape-rendering="crispEdges" fill="#9fc5e8" d="m284.56168 404.27298l63.2966 0l0 41.595795l-63.2966 0l0 -41.595795z" fill-rule="nonzero"/><path shape-rendering="crispEdges" fill="#9fc5e8" d="m157.9685 445.86877l63.296585 0l0 41.595795l-63.296585 0l0 -41.595795z" fill-rule="nonzero"/><path shape-rendering="crispEdges" fill="#9fc5e8" d="m221.26509 445.86877l63.296585 0l0 41.595795l-63.296585 0l0 -41.595795z" fill-rule="nonzero"/><path shape-rendering="crispEdges" fill="#9fc5e8" d="m284.56168 445.86877l63.2966 0l0 41.595795l-63.2966 0l0 -41.595795z" fill-rule="nonzero"/><path shape-rendering="crispEdges" fill="#9fc5e8" d="m157.9685 487.46457l63.296585 0l0 41.595795l-63.296585 0l0 -41.595795z" fill-rule="nonzero"/><path shape-rendering="crispEdges" fill="#9fc5e8" d="m221.26509 487.46457l63.296585 0l0 41.595795l-63.296585 0l0 -41.595795z" fill-rule="nonzero"/><path shape-rendering="crispEdges" fill="#9fc5e8" d="m284.56168 487.46457l63.2966 0l0 41.595795l-63.2966 0l0 -41.595795z" fill-rule="nonzero"/><path stroke="#9e9e9e" stroke-width="1.0" stroke-linecap="butt" d="m31.375328 278.98688l0 250.5722" fill-rule="nonzero"/><path stroke="#9e9e9e" stroke-width="1.0" stroke-linecap="butt" d="m94.67191 278.98688l0 250.5722" fill-rule="nonzero"/><path stroke="#9e9e9e" stroke-width="1.0" stroke-linecap="butt" d="m157.9685 278.98688l0 250.5722" fill-rule="nonzero"/><path stroke="#9e9e9e" stroke-width="1.0" stroke-linecap="butt" d="m221.26509 278.98688l0 250.5722" fill-rule="nonzero"/><path stroke="#9e9e9e" stroke-width="1.0" stroke-linecap="butt" d="m284.56168 278.98688l0 250.5722" fill-rule="nonzero"/><path stroke="#9e9e9e" stroke-width="1.0" stroke-linecap="butt" d="m347.85828 278.98688l0 250.5722" fill-rule="nonzero"/><path stroke="#9e9e9e" stroke-width="1.0" stroke-linecap="butt" d="m411.15485 278.98688l0 250.5722" fill-rule="nonzero"/><path stroke="#9e9e9e" stroke-width="1.0" stroke-linecap="butt" d="m30.87664 279.48557l380.7769 0" fill-rule="nonzero"/><path stroke="#9e9e9e" stroke-width="1.0" stroke-linecap="butt" d="m30.87664 321.08136l380.7769 0" fill-rule="nonzero"/><path stroke="#9e9e9e" stroke-width="1.0" stroke-linecap="butt" d="m30.87664 362.67715l380.7769 0" fill-rule="nonzero"/><path stroke="#9e9e9e" stroke-width="1.0" stroke-linecap="butt" d="m30.87664 404.27298l380.7769 0" fill-rule="nonzero"/><path stroke="#9e9e9e" stroke-width="1.0" stroke-linecap="butt" d="m30.87664 445.86877l380.7769 0" fill-rule="nonzero"/><path stroke="#9e9e9e" stroke-width="1.0" stroke-linecap="butt" d="m30.87664 487.46457l380.7769 0" fill-rule="nonzero"/><path stroke="#9e9e9e" stroke-width="1.0" stroke-linecap="butt" d="m30.87664 529.06036l380.7769 0" fill-rule="nonzero"/><path fill="#000000" fill-opacity="0.0" d="m416.6404 404.27298l146.96066 0" fill-rule="evenodd"/><path stroke="#595959" stroke-width="1.0" stroke-linejoin="round" stroke-linecap="butt" d="m416.6404 404.27298l140.96066 0" fill-rule="evenodd"/><path fill="#595959" stroke="#595959" stroke-width="1.0" stroke-linecap="butt" d="m557.6011 405.9247l4.538086 -1.6517334l-4.538086 -1.6517334z" fill-rule="evenodd"/><path shape-rendering="crispEdges" fill="#cccccc" d="m569.0866 59.08399l63.29657 0l0 41.5958l-63.29657 0l0 -41.5958z" fill-rule="nonzero"/><path shape-rendering="crispEdges" fill="#cccccc" d="m632.3832 59.08399l63.29663 0l0 41.5958l-63.29663 0l0 -41.5958z" fill-rule="nonzero"/><path shape-rendering="crispEdges" fill="#cccccc" d="m695.6798 59.08399l63.29657 0l0 41.5958l-63.29657 0l0 -41.5958z" fill-rule="nonzero"/><path shape-rendering="crispEdges" fill="#cccccc" d="m758.9764 59.08399l63.29657 0l0 41.5958l-63.29657 0l0 -41.5958z" fill-rule="nonzero"/><path shape-rendering="crispEdges" fill="#cccccc" d="m822.27295 59.08399l63.29663 0l0 41.5958l-63.29663 0l0 -41.5958z" fill-rule="nonzero"/><path shape-rendering="crispEdges" fill="#cccccc" d="m885.5696 59.08399l63.29657 0l0 41.5958l-63.29657 0l0 -41.5958z" fill-rule="nonzero"/><path shape-rendering="crispEdges" fill="#9fc5e8" d="m569.0866 100.67979l63.29657 0l0 41.595802l-63.29657 0l0 -41.595802z" fill-rule="nonzero"/><path shape-rendering="crispEdges" fill="#9fc5e8" d="m632.3832 100.67979l63.29663 0l0 41.595802l-63.29663 0l0 -41.595802z" fill-rule="nonzero"/><path shape-rendering="crispEdges" fill="#9fc5e8" d="m695.6798 100.67979l63.29657 0l0 41.595802l-63.29657 0l0 -41.595802z" fill-rule="nonzero"/><path shape-rendering="crispEdges" fill="#9fc5e8" d="m758.9764 100.67979l63.29657 0l0 41.595802l-63.29657 0l0 -41.595802z" fill-rule="nonzero"/><path shape-rendering="crispEdges" fill="#9fc5e8" d="m822.27295 100.67979l63.29663 0l0 41.595802l-63.29663 0l0 -41.595802z" fill-rule="nonzero"/><path shape-rendering="crispEdges" fill="#9fc5e8" d="m885.5696 100.67979l63.29657 0l0 41.595802l-63.29657 0l0 -41.595802z" fill-rule="nonzero"/><path shape-rendering="crispEdges" fill="#9fc5e8" d="m569.0866 142.27559l63.29657 0l0 41.595795l-63.29657 0l0 -41.595795z" fill-rule="nonzero"/><path shape-rendering="crispEdges" fill="#9fc5e8" d="m632.3832 142.27559l63.29663 0l0 41.595795l-63.29663 0l0 -41.595795z" fill-rule="nonzero"/><path shape-rendering="crispEdges" fill="#9fc5e8" d="m695.6798 142.27559l63.29657 0l0 41.595795l-63.29657 0l0 -41.595795z" fill-rule="nonzero"/><path shape-rendering="crispEdges" fill="#9fc5e8" d="m758.9764 142.27559l63.29657 0l0 41.595795l-63.29657 0l0 -41.595795z" fill-rule="nonzero"/><path shape-rendering="crispEdges" fill="#9fc5e8" d="m822.27295 142.27559l63.29663 0l0 41.595795l-63.29663 0l0 -41.595795z" fill-rule="nonzero"/><path shape-rendering="crispEdges" fill="#9fc5e8" d="m885.5696 142.27559l63.29657 0l0 41.595795l-63.29657 0l0 -41.595795z" fill-rule="nonzero"/><path shape-rendering="crispEdges" fill="#9fc5e8" d="m569.0866 183.87138l63.29657 0l0 41.59581l-63.29657 0l0 -41.59581z" fill-rule="nonzero"/><path shape-rendering="crispEdges" fill="#9fc5e8" d="m632.3832 183.87138l63.29663 0l0 41.59581l-63.29663 0l0 -41.59581z" fill-rule="nonzero"/><path shape-rendering="crispEdges" fill="#9fc5e8" d="m695.6798 183.87138l63.29657 0l0 41.59581l-63.29657 0l0 -41.59581z" fill-rule="nonzero"/><path shape-rendering="crispEdges" fill="#9fc5e8" d="m758.9764 183.87138l63.29657 0l0 41.59581l-63.29657 0l0 -41.59581z" fill-rule="nonzero"/><path shape-rendering="crispEdges" fill="#9fc5e8" d="m822.27295 183.87138l63.29663 0l0 41.59581l-63.29663 0l0 -41.59581z" fill-rule="nonzero"/><path shape-rendering="crispEdges" fill="#9fc5e8" d="m885.5696 183.87138l63.29657 0l0 41.59581l-63.29657 0l0 -41.59581z" fill-rule="nonzero"/><path stroke="#9e9e9e" stroke-width="1.0" stroke-linecap="butt" d="m569.0866 58.5853l0 167.38058" fill-rule="nonzero"/><path stroke="#9e9e9e" stroke-width="1.0" stroke-linecap="butt" d="m632.3832 58.5853l0 167.38058" fill-rule="nonzero"/><path stroke="#9e9e9e" stroke-width="1.0" stroke-linecap="butt" d="m695.6798 58.5853l0 167.38058" fill-rule="nonzero"/><path stroke="#9e9e9e" stroke-width="1.0" stroke-linecap="butt" d="m758.9764 58.5853l0 167.38058" fill-rule="nonzero"/><path stroke="#9e9e9e" stroke-width="1.0" stroke-linecap="butt" d="m822.27295 58.5853l0 167.38058" fill-rule="nonzero"/><path stroke="#9e9e9e" stroke-width="1.0" stroke-linecap="butt" d="m885.5696 58.5853l0 167.38058" fill-rule="nonzero"/><path stroke="#9e9e9e" stroke-width="1.0" stroke-linecap="butt" d="m948.86615 58.5853l0 167.38058" fill-rule="nonzero"/><path stroke="#9e9e9e" stroke-width="1.0" stroke-linecap="butt" d="m568.58795 59.08399l380.77686 0" fill-rule="nonzero"/><path stroke="#9e9e9e" stroke-width="1.0" stroke-linecap="butt" d="m568.58795 100.67979l380.77686 0" fill-rule="nonzero"/><path stroke="#9e9e9e" stroke-width="1.0" stroke-linecap="butt" d="m568.58795 142.27559l380.77686 0" fill-rule="nonzero"/><path stroke="#9e9e9e" stroke-width="1.0" stroke-linecap="butt" d="m568.58795 183.87138l380.77686 0" fill-rule="nonzero"/><path stroke="#9e9e9e" stroke-width="1.0" stroke-linecap="butt" d="m568.58795 225.4672l380.77686 0" fill-rule="nonzero"/><path shape-rendering="crispEdges" fill="#6fa8dc" d="m664.0315 281.3517l63.29657 0l0 41.595795l-63.29657 0l0 -41.595795z" fill-rule="nonzero"/><path shape-rendering="crispEdges" fill="#6fa8dc" d="m727.32806 281.3517l63.29663 0l0 41.595795l-63.29663 0l0 -41.595795z" fill-rule="nonzero"/><path shape-rendering="crispEdges" fill="#6fa8dc" d="m790.6247 281.3517l63.29657 0l0 41.595795l-63.29657 0l0 -41.595795z" fill-rule="nonzero"/><path shape-rendering="crispEdges" fill="#9fc5e8" d="m664.0315 322.9475l63.29657 0l0 41.595795l-63.29657 0l0 -41.595795z" fill-rule="nonzero"/><path shape-rendering="crispEdges" fill="#9fc5e8" d="m727.32806 322.9475l63.29663 0l0 41.595795l-63.29663 0l0 -41.595795z" fill-rule="nonzero"/><path shape-rendering="crispEdges" fill="#9fc5e8" d="m790.6247 322.9475l63.29657 0l0 41.595795l-63.29657 0l0 -41.595795z" fill-rule="nonzero"/><path shape-rendering="crispEdges" fill="#9fc5e8" d="m664.0315 364.5433l63.29657 0l0 41.595795l-63.29657 0l0 -41.595795z" fill-rule="nonzero"/><path shape-rendering="crispEdges" fill="#9fc5e8" d="m727.32806 364.5433l63.29663 0l0 41.595795l-63.29663 0l0 -41.595795z" fill-rule="nonzero"/><path shape-rendering="crispEdges" fill="#9fc5e8" d="m790.6247 364.5433l63.29657 0l0 41.595795l-63.29657 0l0 -41.595795z" fill-rule="nonzero"/><path shape-rendering="crispEdges" fill="#9fc5e8" d="m664.0315 406.1391l63.29657 0l0 41.595795l-63.29657 0l0 -41.595795z" fill-rule="nonzero"/><path shape-rendering="crispEdges" fill="#9fc5e8" d="m727.32806 406.1391l63.29663 0l0 41.595795l-63.29663 0l0 -41.595795z" fill-rule="nonzero"/><path shape-rendering="crispEdges" fill="#9fc5e8" d="m790.6247 406.1391l63.29657 0l0 41.595795l-63.29657 0l0 -41.595795z" fill-rule="nonzero"/><path shape-rendering="crispEdges" fill="#9fc5e8" d="m664.0315 447.7349l63.29657 0l0 41.595825l-63.29657 0l0 -41.595825z" fill-rule="nonzero"/><path shape-rendering="crispEdges" fill="#9fc5e8" d="m727.32806 447.7349l63.29663 0l0 41.595825l-63.29663 0l0 -41.595825z" fill-rule="nonzero"/><path shape-rendering="crispEdges" fill="#9fc5e8" d="m790.6247 447.7349l63.29657 0l0 41.595825l-63.29657 0l0 -41.595825z" fill-rule="nonzero"/><path shape-rendering="crispEdges" fill="#9fc5e8" d="m664.0315 489.33072l63.29657 0l0 41.595795l-63.29657 0l0 -41.595795z" fill-rule="nonzero"/><path shape-rendering="crispEdges" fill="#9fc5e8" d="m727.32806 489.33072l63.29663 0l0 41.595795l-63.29663 0l0 -41.595795z" fill-rule="nonzero"/><path shape-rendering="crispEdges" fill="#9fc5e8" d="m790.6247 489.33072l63.29657 0l0 41.595795l-63.29657 0l0 -41.595795z" fill-rule="nonzero"/><path stroke="#9e9e9e" stroke-width="1.0" stroke-linecap="butt" d="m664.0315 280.85303l0 250.57214" fill-rule="nonzero"/><path stroke="#9e9e9e" stroke-width="1.0" stroke-linecap="butt" d="m727.32806 280.85303l0 250.57214" fill-rule="nonzero"/><path stroke="#9e9e9e" stroke-width="1.0" stroke-linecap="butt" d="m790.6247 280.85303l0 250.57214" fill-rule="nonzero"/><path stroke="#9e9e9e" stroke-width="1.0" stroke-linecap="butt" d="m853.92126 280.85303l0 250.57214" fill-rule="nonzero"/><path stroke="#9e9e9e" stroke-width="1.0" stroke-linecap="butt" d="m663.53284 281.3517l190.88708 0" fill-rule="nonzero"/><path stroke="#9e9e9e" stroke-width="1.0" stroke-linecap="butt" d="m663.53284 322.9475l190.88708 0" fill-rule="nonzero"/><path stroke="#9e9e9e" stroke-width="1.0" stroke-linecap="butt" d="m663.53284 364.5433l190.88708 0" fill-rule="nonzero"/><path stroke="#9e9e9e" stroke-width="1.0" stroke-linecap="butt" d="m663.53284 406.1391l190.88708 0" fill-rule="nonzero"/><path stroke="#9e9e9e" stroke-width="1.0" stroke-linecap="butt" d="m663.53284 447.7349l190.88708 0" fill-rule="nonzero"/><path stroke="#9e9e9e" stroke-width="1.0" stroke-linecap="butt" d="m663.53284 489.33072l190.88708 0" fill-rule="nonzero"/><path stroke="#9e9e9e" stroke-width="1.0" stroke-linecap="butt" d="m663.53284 530.9265l190.88708 0" fill-rule="nonzero"/></g></svg>