<svg version="1.1" viewBox="0.0 0.0 960.0 540.0" fill="none" stroke="none" stroke-linecap="square" stroke-miterlimit="10" xmlns:xlink="http://www.w3.org/1999/xlink" xmlns="http://www.w3.org/2000/svg"><clipPath id="p.0"><path d="m0 0l960.0 0l0 540.0l-960.0 0l0 -540.0z" clip-rule="nonzero"/></clipPath><g clip-path="url(#p.0)"><path fill="#ffffff" d="m0 0l960.0 0l0 540.0l-960.0 0z" fill-rule="evenodd"/><path fill="#6fa8dc" d="m58.076115 235.18373l149.7874 0l0 152.40157l-149.7874 0z" fill-rule="evenodd"/><path fill="#5886af" d="m207.86351 235.18373l49.929153 -49.92914l0 152.40157l-49.929153 49.92914z" fill-rule="evenodd"/><path fill="#8bb9e3" d="m58.076115 235.18373l49.929134 -49.92914l149.78741 0l-49.929153 49.92914z" fill-rule="evenodd"/><path fill="#000000" fill-opacity="0.0" d="m58.076115 235.18373l49.929134 -49.92914l149.78741 0l0 152.40157l-49.929153 49.92914l-149.7874 0zm0 0l149.7874 0l49.929153 -49.92914m-49.929153 49.92914l0 152.40157" fill-rule="evenodd"/><path stroke="#595959" stroke-width="1.0" stroke-linejoin="round" stroke-linecap="butt" d="m58.076115 235.18373l49.929134 -49.92914l149.78741 0l0 152.40157l-49.929153 49.92914l-149.7874 0zm0 0l149.7874 0l49.929153 -49.92914m-49.929153 49.92914l0 152.40157" fill-rule="evenodd"/><path fill="#000000" fill-opacity="0.0" d="m10.120735 113.391075l53.228348 0l0 48.472435l-53.228348 0z" fill-rule="evenodd"/><path fill="#595959" d="m32.324753 145.43108l-2.109375 0l0 -13.4375q-0.75 0.71875 -2.0 1.453125q-1.234375 0.71875 -2.21875 1.078125l0 -2.03125q1.78125 -0.828125 3.09375 -2.015625q1.328125 -1.1875 1.875 -2.296875l1.359375 0l0 17.25zm5.4101562 -4.5l2.21875 -0.1875q0.234375 1.609375 1.125 2.4375q0.90625 0.8125 2.171875 0.8125q1.53125 0 2.578125 -1.140625q1.0625 -1.15625 1.0625 -3.0625q0 -1.796875 -1.015625 -2.84375q-1.015625 -1.046875 -2.65625 -1.046875q-1.015625 0 -1.84375 0.46875q-0.8125 0.453125 -1.28125 1.203125l-1.984375 -0.265625l1.65625 -8.828125l8.546875 0l0 2.015625l-6.859375 0l-0.921875 4.625q1.546875 -1.078125 3.25 -1.078125q2.25 0 3.796875 1.5625q1.546875 1.546875 1.546875 4.0q0 2.328125 -1.359375 4.03125q-1.65625 2.09375 -4.515625 2.09375q-2.34375 0 -3.828125 -1.3125q-1.484375 -1.3125 -1.6875 -3.484375z" fill-rule="nonzero"/><path fill="#6fa8dc" d="m109.97113 185.2546l37.05092 -95.25459l148.20366 0l-37.050903 95.25459z" fill-rule="evenodd"/><path stroke="#595959" stroke-width="1.0" stroke-linejoin="round" stroke-linecap="butt" d="m109.97113 185.2546l37.05092 -95.25459l148.20366 0l-37.050903 95.25459z" fill-rule="evenodd"/><path fill="#000000" fill-opacity="0.0" d="m58.076115 139.27034l87.37009 76.220474" fill-rule="evenodd"/><path stroke="#595959" stroke-width="1.0" stroke-linejoin="round" stroke-linecap="butt" d="m58.076115 139.27034l82.84877 72.27614" fill-rule="evenodd"/><path fill="#595959" stroke="#595959" stroke-width="1.0" stroke-linecap="butt" d="m139.83905 212.79115l4.5055237 1.738617l-2.3338623 -4.227951z" fill-rule="evenodd"/><path fill="#6fa8dc" d="m381.6378 235.18373l149.78738 0l0 152.40157l-149.78738 0z" fill-rule="evenodd"/><path fill="#5886af" d="m531.4252 235.18373l49.92914 -49.92914l0 152.40157l-49.92914 49.92914z" fill-rule="evenodd"/><path fill="#8bb9e3" d="m381.6378 235.18373l49.92914 -49.92914l149.78738 0l-49.92914 49.92914z" fill-rule="evenodd"/><path fill="#000000" fill-opacity="0.0" d="m381.6378 235.18373l49.92914 -49.92914l149.78738 0l0 152.40157l-49.92914 49.92914l-149.78738 0zm0 0l149.78738 0l49.92914 -49.92914m-49.92914 49.92914l0 152.40157" fill-rule="evenodd"/><path stroke="#595959" stroke-width="1.0" stroke-linejoin="round" stroke-linecap="butt" d="m381.6378 235.18373l49.92914 -49.92914l149.78738 0l0 152.40157l-49.92914 49.92914l-149.78738 0zm0 0l149.78738 0l49.92914 -49.92914m-49.92914 49.92914l0 152.40157" fill-rule="evenodd"/><path fill="#000000" fill-opacity="0.0" d="m289.54855 113.391075l100.09448 0l0 48.472435l-100.09448 0z" fill-rule="evenodd"/><path fill="#595959" d="m307.49228 131.1342l0 2.453125l-2.265625 0l0 -1.9375q0 -1.578125 0.375 -2.28125q0.5 -0.9375 1.5625 -1.40625l0.515625 0.8125q-0.640625 0.265625 -0.953125 0.8125q-0.296875 0.53125 -0.328125 1.546875l1.09375 0zm3.640625 0l0 2.453125l-2.265625 0l0 -1.9375q0 -1.578125 0.375 -2.28125q0.484375 -0.9375 1.5625 -1.40625l0.515625 0.8125q-0.65625 0.265625 -0.96875 0.8125q-0.296875 0.53125 -0.328125 1.546875l1.109375 0zm3.0390625 14.296875l0 -17.1875l2.28125 0l0 7.0625l8.921875 0l0 -7.0625l2.28125 0l0 17.1875l-2.28125 0l0 -8.09375l-8.921875 0l0 8.09375l-2.28125 0zm25.519531 -4.015625l2.171875 0.28125q-0.515625 1.90625 -1.90625 2.96875q-1.390625 1.046875 -3.5625 1.046875q-2.734375 0 -4.34375 -1.671875q-1.59375 -1.6875 -1.59375 -4.734375q0 -3.140625 1.609375 -4.875q1.625 -1.734375 4.203125 -1.734375q2.5 0 4.078125 1.703125q1.59375 1.703125 1.59375 4.78125q0 0.1875 -0.015625 0.5625l-9.28125 0q0.109375 2.046875 1.15625 3.140625q1.046875 1.09375 2.609375 1.09375q1.15625 0 1.96875 -0.609375q0.828125 -0.609375 1.3125 -1.953125zm-6.9375 -3.40625l6.953125 0q-0.140625 -1.5625 -0.796875 -2.359375q-1.0 -1.21875 -2.609375 -1.21875q-1.453125 0 -2.453125 0.984375q-0.984375 0.96875 -1.09375 2.59375zm11.707031 7.421875l0 -17.1875l2.109375 0l0 17.1875l-2.109375 0zm5.3320312 0l0 -17.1875l2.109375 0l0 17.1875l-2.109375 0zm4.5976562 -6.21875q0 -3.46875 1.921875 -5.125q1.609375 -1.390625 3.921875 -1.390625q2.5625 0 4.1875 1.6875q1.625 1.6875 1.625 4.640625q0 2.40625 -0.71875 3.78125q-0.71875 1.375 -2.09375 2.140625q-1.375 0.765625 -3.0 0.765625q-2.625 0 -4.234375 -1.671875q-1.609375 -1.6875 -1.609375 -4.828125zm2.171875 0q0 2.390625 1.03125 3.578125q1.046875 1.1875 2.640625 1.1875q1.5625 0 2.609375 -1.1875q1.046875 -1.203125 1.046875 -3.65625q0 -2.3125 -1.0625 -3.5q-1.046875 -1.1875 -2.59375 -1.1875q-1.59375 0 -2.640625 1.1875q-1.03125 1.1875 -1.03125 3.578125zm11.394531 -8.6875l0 -2.453125l2.265625 0l0 1.9375q0 1.5625 -0.359375 2.265625q-0.5 0.9375 -1.578125 1.421875l-0.515625 -0.828125q0.640625 -0.265625 0.953125 -0.8125q0.3125 -0.5625 0.34375 -1.53125l-1.109375 0zm3.640625 0l0 -2.453125l2.265625 0l0 1.9375q0 1.5625 -0.375 2.265625q-0.5 0.9375 -1.5625 1.421875l-0.515625 -0.828125q0.625 -0.265625 0.9375 -0.8125q0.3125 -0.5625 0.34375 -1.53125l-1.09375 0z" fill-rule="nonzero"/><path fill="#6fa8dc" d="m431.56168 185.2546l37.050934 -95.25459l148.20367 0l-37.050903 95.25459z" fill-rule="evenodd"/><path stroke="#595959" stroke-width="1.0" stroke-linejoin="round" stroke-linecap="butt" d="m431.56168 185.2546l37.050934 -95.25459l148.20367 0l-37.050903 95.25459z" fill-rule="evenodd"/><path fill="#000000" fill-opacity="0.0" d="m381.6378 139.27034l87.37009 76.220474" fill-rule="evenodd"/><path stroke="#595959" stroke-width="1.0" stroke-linejoin="round" stroke-linecap="butt" d="m381.6378 139.27034l82.848755 72.27614" fill-rule="evenodd"/><path fill="#595959" stroke="#595959" stroke-width="1.0" stroke-linecap="butt" d="m463.40073 212.79115l4.5055237 1.738617l-2.3338623 -4.227951z" fill-rule="evenodd"/><path fill="#6fa8dc" d="m711.3018 235.18373l149.78741 0l0 152.40157l-149.78741 0z" fill-rule="evenodd"/><path fill="#5886af" d="m861.08923 235.18373l49.92914 -49.92914l0 152.40157l-49.92914 49.92914z" fill-rule="evenodd"/><path fill="#8bb9e3" d="m711.3018 235.18373l49.92914 -49.92914l149.78741 0l-49.92914 49.92914z" fill-rule="evenodd"/><path fill="#000000" fill-opacity="0.0" d="m711.3018 235.18373l49.92914 -49.92914l149.78741 0l0 152.40157l-49.92914 49.92914l-149.78741 0zm0 0l149.78741 0l49.92914 -49.92914m-49.92914 49.92914l0 152.40157" fill-rule="evenodd"/><path stroke="#595959" stroke-width="1.0" stroke-linejoin="round" stroke-linecap="butt" d="m711.3018 235.18373l49.92914 -49.92914l149.78741 0l0 152.40157l-49.92914 49.92914l-149.78741 0zm0 0l149.78741 0l49.92914 -49.92914m-49.92914 49.92914l0 152.40157" fill-rule="evenodd"/><path fill="#000000" fill-opacity="0.0" d="m619.2126 113.391075l100.09448 0l0 48.472435l-100.09448 0z" fill-rule="evenodd"/><path fill="#595959" d="m642.81256 145.43108l0 -15.15625l-5.65625 0l0 -2.03125l13.625 0l0 2.03125l-5.6875 0l0 15.15625l-2.28125 0zm10.332031 0l0 -17.1875l7.609375 0q2.296875 0 3.484375 0.46875q1.203125 0.46875 1.921875 1.640625q0.71875 1.171875 0.71875 2.578125q0 1.828125 -1.1875 3.09375q-1.1875 1.25 -3.65625 1.59375q0.90625 0.421875 1.375 0.84375q1.0 0.921875 1.890625 2.296875l2.984375 4.671875l-2.859375 0l-2.28125 -3.578125q-0.984375 -1.546875 -1.640625 -2.359375q-0.640625 -0.828125 -1.15625 -1.15625q-0.5 -0.328125 -1.03125 -0.453125q-0.390625 -0.078125 -1.265625 -0.078125l-2.640625 0l0 7.625l-2.265625 0zm2.265625 -9.59375l4.890625 0q1.5625 0 2.4375 -0.328125q0.875 -0.328125 1.328125 -1.03125q0.46875 -0.703125 0.46875 -1.546875q0 -1.21875 -0.890625 -2.0q-0.875 -0.78125 -2.796875 -0.78125l-5.4375 0l0 5.6875zm26.300781 -7.59375l2.28125 0l0 9.9375q0 2.578125 -0.59375 4.109375q-0.578125 1.515625 -2.109375 2.484375q-1.53125 0.953125 -4.015625 0.953125q-2.421875 0 -3.953125 -0.828125q-1.53125 -0.84375 -2.1875 -2.421875q-0.65625 -1.578125 -0.65625 -4.296875l0 -9.9375l2.265625 0l0 9.921875q0 2.234375 0.421875 3.296875q0.421875 1.0625 1.421875 1.640625q1.015625 0.5625 2.484375 0.5625q2.515625 0 3.578125 -1.125q1.0625 -1.140625 1.0625 -4.375l0 -9.921875zm6.1132812 17.1875l0 -17.1875l12.421875 0l0 2.03125l-10.15625 0l0 5.265625l9.5 0l0 2.015625l-9.5 0l0 5.84375l10.546875 0l0 2.03125l-12.8125 0z" fill-rule="nonzero"/><path fill="#6fa8dc" d="m761.2257 185.2546l37.050903 -95.25459l148.20367 0l-37.050903 95.25459z" fill-rule="evenodd"/><path stroke="#595959" stroke-width="1.0" stroke-linejoin="round" stroke-linecap="butt" d="m761.2257 185.2546l37.050903 -95.25459l148.20367 0l-37.050903 95.25459z" fill-rule="evenodd"/><path fill="#000000" fill-opacity="0.0" d="m711.3018 139.27034l87.37012 76.220474" fill-rule="evenodd"/><path stroke="#595959" stroke-width="1.0" stroke-linejoin="round" stroke-linecap="butt" d="m711.3018 139.27034l82.848755 72.27614" fill-rule="evenodd"/><path fill="#595959" stroke="#595959" stroke-width="1.0" stroke-linecap="butt" d="m793.06476 212.79115l4.505554 1.738617l-2.3338623 -4.227951z" fill-rule="evenodd"/><path fill="#000000" fill-opacity="0.0" d="m83.19423 282.48032l100.09448 0l0 48.472443l-100.09448 0z" fill-rule="evenodd"/><path fill="#ffffff" d="m113.61452 314.52032l-4.734375 -12.453125l2.21875 0l2.671875 7.453125q0.4375 1.21875 0.796875 2.515625q0.28125 -0.984375 0.78125 -2.375l2.765625 -7.59375l2.171875 0l-4.703125 12.453125l-1.96875 0zm16.65625 -1.53125q-1.171875 0.984375 -2.265625 1.40625q-1.078125 0.40625 -2.3125 0.40625q-2.046875 0 -3.15625 -1.0q-1.09375 -1.0 -1.09375 -2.5625q0 -0.921875 0.40625 -1.671875q0.421875 -0.75 1.09375 -1.203125q0.671875 -0.46875 1.515625 -0.703125q0.625 -0.15625 1.875 -0.3125q2.5625 -0.3125 3.765625 -0.734375q0.015625 -0.421875 0.015625 -0.546875q0 -1.28125 -0.609375 -1.8125q-0.796875 -0.71875 -2.390625 -0.71875q-1.5 0 -2.203125 0.53125q-0.703125 0.515625 -1.046875 1.84375l-2.0625 -0.28125q0.28125 -1.328125 0.921875 -2.140625q0.640625 -0.8125 1.859375 -1.25q1.21875 -0.453125 2.828125 -0.453125q1.59375 0 2.59375 0.375q1.0 0.375 1.46875 0.953125q0.46875 0.5625 0.65625 1.4375q0.09375 0.53125 0.09375 1.9375l0 2.8125q0 2.9375 0.140625 3.71875q0.140625 0.78125 0.53125 1.5l-2.203125 0q-0.328125 -0.65625 -0.421875 -1.53125zm-0.171875 -4.71875q-1.15625 0.46875 -3.453125 0.796875q-1.296875 0.1875 -1.84375 0.421875q-0.53125 0.234375 -0.828125 0.6875q-0.28125 0.453125 -0.28125 1.0q0 0.84375 0.625 1.40625q0.640625 0.5625 1.875 0.5625q1.21875 0 2.171875 -0.53125q0.953125 -0.53125 1.390625 -1.453125q0.34375 -0.71875 0.34375 -2.109375l0 -0.78125zm5.3789062 6.25l0 -12.453125l1.890625 0l0 1.890625q0.734375 -1.328125 1.34375 -1.75q0.625 -0.421875 1.359375 -0.421875q1.0625 0 2.171875 0.6875l-0.734375 1.953125q-0.765625 -0.453125 -1.546875 -0.453125q-0.6875 0 -1.25 0.421875q-0.546875 0.40625 -0.78125 1.140625q-0.34375 1.125 -0.34375 2.46875l0 6.515625l-2.109375 0zm6.3984375 0l6.59375 -17.1875l2.453125 0l7.03125 17.1875l-2.59375 0l-2.0 -5.203125l-7.1875 0l-1.890625 5.203125l-2.40625 0zm4.953125 -7.0625l5.828125 0l-1.796875 -4.75q-0.8125 -2.171875 -1.21875 -3.5625q-0.328125 1.65625 -0.921875 3.28125l-1.890625 5.03125z" fill-rule="nonzero"/><path fill="#000000" fill-opacity="0.0" d="m413.95276 282.48032l100.09448 0l0 48.472443l-100.09448 0z" fill-rule="evenodd"/><path fill="#ffffff" d="m444.37305 314.52032l-4.734375 -12.453125l2.21875 0l2.671875 7.453125q0.4375 1.21875 0.796875 2.515625q0.28125 -0.984375 0.78125 -2.375l2.765625 -7.59375l2.171875 0l-4.703125 12.453125l-1.96875 0zm16.65625 -1.53125q-1.171875 0.984375 -2.265625 1.40625q-1.078125 0.40625 -2.3125 0.40625q-2.046875 0 -3.15625 -1.0q-1.09375 -1.0 -1.09375 -2.5625q0 -0.921875 0.40625 -1.671875q0.421875 -0.75 1.09375 -1.203125q0.671875 -0.46875 1.515625 -0.703125q0.625 -0.15625 1.875 -0.3125q2.5625 -0.3125 3.765625 -0.734375q0.015625 -0.421875 0.015625 -0.546875q0 -1.28125 -0.609375 -1.8125q-0.796875 -0.71875 -2.390625 -0.71875q-1.5 0 -2.203125 0.53125q-0.703125 0.515625 -1.046875 1.84375l-2.0625 -0.28125q0.28125 -1.328125 0.921875 -2.140625q0.640625 -0.8125 1.859375 -1.25q1.21875 -0.453125 2.828125 -0.453125q1.59375 0 2.59375 0.375q1.0 0.375 1.46875 0.953125q0.46875 0.5625 0.65625 1.4375q0.09375 0.53125 0.09375 1.9375l0 2.8125q0 2.9375 0.140625 3.71875q0.140625 0.78125 0.53125 1.5l-2.203125 0q-0.328125 -0.65625 -0.421875 -1.53125zm-0.171875 -4.71875q-1.15625 0.46875 -3.453125 0.796875q-1.296875 0.1875 -1.84375 0.421875q-0.53125 0.234375 -0.828125 0.6875q-0.28125 0.453125 -0.28125 1.0q0 0.84375 0.625 1.40625q0.640625 0.5625 1.875 0.5625q1.21875 0 2.171875 -0.53125q0.953125 -0.53125 1.390625 -1.453125q0.34375 -0.71875 0.34375 -2.109375l0 -0.78125zm5.3789062 6.25l0 -12.453125l1.890625 0l0 1.890625q0.734375 -1.328125 1.34375 -1.75q0.625 -0.421875 1.359375 -0.421875q1.0625 0 2.171875 0.6875l-0.734375 1.953125q-0.765625 -0.453125 -1.546875 -0.453125q-0.6875 0 -1.25 0.421875q-0.546875 0.40625 -0.78125 1.140625q-0.34375 1.125 -0.34375 2.46875l0 6.515625l-2.109375 0zm8.1953125 0l0 -17.1875l6.4375 0q1.96875 0 3.15625 0.53125q1.1875 0.515625 1.859375 1.609375q0.6875 1.078125 0.6875 2.265625q0 1.09375 -0.609375 2.078125q-0.59375 0.96875 -1.796875 1.5625q1.5625 0.453125 2.390625 1.5625q0.84375 1.09375 0.84375 2.59375q0 1.203125 -0.515625 2.25q-0.5 1.03125 -1.25 1.59375q-0.75 0.5625 -1.890625 0.859375q-1.125 0.28125 -2.765625 0.28125l-6.546875 0zm2.265625 -9.96875l3.71875 0q1.515625 0 2.171875 -0.1875q0.859375 -0.265625 1.296875 -0.859375q0.4375 -0.59375 0.4375 -1.5q0 -0.859375 -0.40625 -1.5q-0.40625 -0.65625 -1.171875 -0.890625q-0.765625 -0.25 -2.609375 -0.25l-3.4375 0l0 5.1875zm0 7.9375l4.28125 0q1.09375 0 1.546875 -0.078125q0.78125 -0.140625 1.3125 -0.46875q0.53125 -0.328125 0.859375 -0.953125q0.34375 -0.625 0.34375 -1.453125q0 -0.953125 -0.5 -1.65625q-0.484375 -0.71875 -1.359375 -1.0q-0.875 -0.296875 -2.515625 -0.296875l-3.96875 0l0 5.90625z" fill-rule="nonzero"/><path fill="#000000" fill-opacity="0.0" d="m737.9685 282.48032l100.09448 0l0 48.472443l-100.09448 0z" fill-rule="evenodd"/><path fill="#ffffff" d="m767.7267 314.52032l-4.734375 -12.453125l2.21875 0l2.671875 7.453125q0.4375 1.21875 0.796875 2.515625q0.28125 -0.984375 0.78125 -2.375l2.765625 -7.59375l2.171875 0l-4.703125 12.453125l-1.96875 0zm16.65625 -1.53125q-1.171875 0.984375 -2.265625 1.40625q-1.078125 0.40625 -2.3125 0.40625q-2.046875 0 -3.15625 -1.0q-1.09375 -1.0 -1.09375 -2.5625q0 -0.921875 0.40625 -1.671875q0.421875 -0.75 1.09375 -1.203125q0.671875 -0.46875 1.515625 -0.703125q0.625 -0.15625 1.875 -0.3125q2.5625 -0.3125 3.765625 -0.734375q0.015625 -0.421875 0.015625 -0.546875q0 -1.28125 -0.609375 -1.8125q-0.796875 -0.71875 -2.390625 -0.71875q-1.5 0 -2.203125 0.53125q-0.703125 0.515625 -1.046875 1.84375l-2.0625 -0.28125q0.28125 -1.328125 0.921875 -2.140625q0.640625 -0.8125 1.859375 -1.25q1.21875 -0.453125 2.828125 -0.453125q1.59375 0 2.59375 0.375q1.0 0.375 1.46875 0.953125q0.46875 0.5625 0.65625 1.4375q0.09375 0.53125 0.09375 1.9375l0 2.8125q0 2.9375 0.140625 3.71875q0.140625 0.78125 0.53125 1.5l-2.203125 0q-0.328125 -0.65625 -0.421875 -1.53125zm-0.171875 -4.71875q-1.15625 0.46875 -3.453125 0.796875q-1.296875 0.1875 -1.84375 0.421875q-0.53125 0.234375 -0.828125 0.6875q-0.28125 0.453125 -0.28125 1.0q0 0.84375 0.625 1.40625q0.640625 0.5625 1.875 0.5625q1.21875 0 2.171875 -0.53125q0.953125 -0.53125 1.390625 -1.453125q0.34375 -0.71875 0.34375 -2.109375l0 -0.78125zm5.3789062 6.25l0 -12.453125l1.890625 0l0 1.890625q0.734375 -1.328125 1.34375 -1.75q0.625 -0.421875 1.359375 -0.421875q1.0625 0 2.171875 0.6875l-0.734375 1.953125q-0.765625 -0.453125 -1.546875 -0.453125q-0.6875 0 -1.25 0.421875q-0.546875 0.40625 -0.78125 1.140625q-0.34375 1.125 -0.34375 2.46875l0 6.515625l-2.109375 0zm20.539062 -6.03125l2.28125 0.578125q-0.71875 2.796875 -2.578125 4.28125q-1.859375 1.46875 -4.546875 1.46875q-2.765625 0 -4.515625 -1.125q-1.734375 -1.140625 -2.640625 -3.28125q-0.90625 -2.15625 -0.90625 -4.609375q0 -2.6875 1.015625 -4.6875q1.03125 -2.0 2.921875 -3.03125q1.890625 -1.03125 4.171875 -1.03125q2.578125 0 4.328125 1.3125q1.765625 1.3125 2.453125 3.6875l-2.234375 0.53125q-0.609375 -1.875 -1.75 -2.734375q-1.125 -0.859375 -2.84375 -0.859375q-1.984375 0 -3.3125 0.953125q-1.328125 0.953125 -1.875 2.546875q-0.53125 1.59375 -0.53125 3.296875q0 2.1875 0.625 3.828125q0.640625 1.640625 1.984375 2.453125q1.359375 0.796875 2.921875 0.796875q1.921875 0 3.234375 -1.09375q1.328125 -1.109375 1.796875 -3.28125z" fill-rule="nonzero"/></g></svg>